<svg width="122" height="30" viewBox="0 0 122 30" fill="none" xmlns="http://www.w3.org/2000/svg">
<g opacity="0.5">
<path fill-rule="evenodd" clip-rule="evenodd" d="M10 0H0V10C0 12.7614 2.23858 15 5 15H15V5C15 2.23858 12.7614 0 10 0ZM10 2H2V10C2 11.6569 3.34315 13 5 13H13V5C13 3.34315 11.6569 2 10 2Z" fill="white"/>
<path d="M27.168 1.947H29.735L30.959 5.806L32.183 1.947H34.767L32.744 7.557L33.968 10.804L36.994 1.93H40.037L35.209 14H32.88L30.959 9.274L29.055 14H26.709L21.898 1.93H24.924L27.967 10.804L29.157 7.557L27.168 1.947ZM45.9244 14.102C45.0291 14.102 44.2131 13.9263 43.4764 13.575C42.7398 13.2237 42.1108 12.7647 41.5894 12.198C41.0681 11.62 40.6601 10.9627 40.3654 10.226C40.0821 9.48933 39.9404 8.73 39.9404 7.948C39.9404 7.15467 40.0878 6.38967 40.3824 5.653C40.6884 4.91633 41.1078 4.27033 41.6404 3.715C42.1844 3.14833 42.8248 2.70067 43.5614 2.372C44.2981 2.032 45.1028 1.862 45.9754 1.862C46.8708 1.862 47.6868 2.03767 48.4234 2.389C49.1601 2.74033 49.7891 3.205 50.3104 3.783C50.8318 4.361 51.2341 5.01833 51.5174 5.755C51.8008 6.49167 51.9424 7.23967 51.9424 7.999C51.9424 8.79233 51.7894 9.55733 51.4834 10.294C51.1888 11.0307 50.7751 11.6823 50.2424 12.249C49.7098 12.8043 49.0751 13.252 48.3384 13.592C47.6018 13.932 46.7971 14.102 45.9244 14.102ZM42.7794 7.982C42.7794 8.44667 42.8474 8.9 42.9834 9.342C43.1194 9.77267 43.3178 10.158 43.5784 10.498C43.8504 10.838 44.1848 11.11 44.5814 11.314C44.9781 11.518 45.4314 11.62 45.9414 11.62C46.4741 11.62 46.9388 11.5123 47.3354 11.297C47.7321 11.0817 48.0608 10.804 48.3214 10.464C48.5821 10.1127 48.7748 9.72167 48.8994 9.291C49.0354 8.849 49.1034 8.40133 49.1034 7.948C49.1034 7.48333 49.0354 7.03567 48.8994 6.605C48.7634 6.163 48.5594 5.77767 48.2874 5.449C48.0154 5.109 47.6811 4.84267 47.2844 4.65C46.8991 4.446 46.4514 4.344 45.9414 4.344C45.4088 4.344 44.9441 4.45167 44.5474 4.667C44.1621 4.871 43.8334 5.143 43.5614 5.483C43.3008 5.823 43.1024 6.214 42.9664 6.656C42.8418 7.08667 42.7794 7.52867 42.7794 7.982ZM58.8405 14.102C57.9451 14.102 57.1291 13.9263 56.3925 13.575C55.6558 13.2237 55.0268 12.7647 54.5055 12.198C53.9841 11.62 53.5761 10.9627 53.2815 10.226C52.9981 9.48933 52.8565 8.73 52.8565 7.948C52.8565 7.15467 53.0038 6.38967 53.2985 5.653C53.6045 4.91633 54.0238 4.27033 54.5565 3.715C55.1005 3.14833 55.7408 2.70067 56.4775 2.372C57.2141 2.032 58.0188 1.862 58.8915 1.862C59.7868 1.862 60.6028 2.03767 61.3395 2.389C62.0761 2.74033 62.7051 3.205 63.2265 3.783C63.7478 4.361 64.1501 5.01833 64.4335 5.755C64.7168 6.49167 64.8585 7.23967 64.8585 7.999C64.8585 8.79233 64.7055 9.55733 64.3995 10.294C64.1048 11.0307 63.6911 11.6823 63.1585 12.249C62.6258 12.8043 61.9911 13.252 61.2545 13.592C60.5178 13.932 59.7131 14.102 58.8405 14.102ZM55.6955 7.982C55.6955 8.44667 55.7635 8.9 55.8995 9.342C56.0355 9.77267 56.2338 10.158 56.4945 10.498C56.7665 10.838 57.1008 11.11 57.4975 11.314C57.8941 11.518 58.3475 11.62 58.8575 11.62C59.3901 11.62 59.8548 11.5123 60.2515 11.297C60.6481 11.0817 60.9768 10.804 61.2375 10.464C61.4981 10.1127 61.6908 9.72167 61.8155 9.291C61.9515 8.849 62.0195 8.40133 62.0195 7.948C62.0195 7.48333 61.9515 7.03567 61.8155 6.605C61.6795 6.163 61.4755 5.77767 61.2035 5.449C60.9315 5.109 60.5971 4.84267 60.2005 4.65C59.8151 4.446 59.3675 4.344 58.8575 4.344C58.3248 4.344 57.8601 4.45167 57.4635 4.667C57.0781 4.871 56.7495 5.143 56.4775 5.483C56.2168 5.823 56.0185 6.214 55.8825 6.656C55.7578 7.08667 55.6955 7.52867 55.6955 7.982ZM66.4695 14V1.93H70.9745C71.9718 1.93 72.8445 2.08867 73.5925 2.406C74.3405 2.72333 74.9638 3.154 75.4625 3.698C75.9725 4.242 76.3521 4.88233 76.6015 5.619C76.8621 6.34433 76.9925 7.12067 76.9925 7.948C76.9925 8.866 76.8508 9.699 76.5675 10.447C76.2841 11.1837 75.8761 11.8183 75.3435 12.351C74.8221 12.8723 74.1875 13.2803 73.4395 13.575C72.7028 13.8583 71.8811 14 70.9745 14H66.4695ZM74.1535 7.948C74.1535 7.41533 74.0798 6.93367 73.9325 6.503C73.7965 6.061 73.5925 5.68133 73.3205 5.364C73.0485 5.04667 72.7141 4.803 72.3175 4.633C71.9208 4.463 71.4731 4.378 70.9745 4.378H69.2575V11.552H70.9745C71.4845 11.552 71.9378 11.4613 72.3345 11.28C72.7311 11.0987 73.0598 10.8493 73.3205 10.532C73.5925 10.2033 73.7965 9.82367 73.9325 9.393C74.0798 8.951 74.1535 8.46933 74.1535 7.948ZM87.271 4.378H83.599V14H80.811V4.378H77.122V1.93H87.271V4.378ZM97.1156 11.552V14H88.6326V1.93H96.9626V4.378H91.4206V6.724H96.1806V8.985H91.4206V11.552H97.1156ZM97.8633 7.863C97.8633 7.13767 97.9993 6.418 98.2713 5.704C98.5433 4.97867 98.94 4.33267 99.4613 3.766C99.9826 3.19933 100.617 2.74033 101.365 2.389C102.113 2.03767 102.963 1.862 103.915 1.862C105.049 1.862 106.029 2.10567 106.856 2.593C107.695 3.08033 108.318 3.715 108.726 4.497L106.584 5.993C106.448 5.67567 106.273 5.415 106.057 5.211C105.853 4.99567 105.627 4.82567 105.377 4.701C105.128 4.565 104.873 4.47433 104.612 4.429C104.352 4.37233 104.097 4.344 103.847 4.344C103.315 4.344 102.85 4.45167 102.453 4.667C102.057 4.88233 101.728 5.16 101.467 5.5C101.207 5.84 101.014 6.22533 100.889 6.656C100.765 7.08667 100.702 7.523 100.702 7.965C100.702 8.441 100.776 8.9 100.923 9.342C101.071 9.784 101.28 10.175 101.552 10.515C101.836 10.855 102.17 11.127 102.555 11.331C102.952 11.5237 103.394 11.62 103.881 11.62C104.131 11.62 104.386 11.5917 104.646 11.535C104.918 11.467 105.173 11.3707 105.411 11.246C105.661 11.11 105.887 10.94 106.091 10.736C106.295 10.5207 106.46 10.26 106.584 9.954L108.862 11.297C108.681 11.739 108.409 12.1357 108.046 12.487C107.695 12.8383 107.287 13.133 106.822 13.371C106.358 13.609 105.865 13.7903 105.343 13.915C104.822 14.0397 104.312 14.102 103.813 14.102C102.941 14.102 102.136 13.9263 101.399 13.575C100.674 13.2123 100.045 12.7363 99.5123 12.147C98.991 11.5577 98.583 10.889 98.2883 10.141C98.005 9.393 97.8633 8.63367 97.8633 7.863ZM120.651 1.93V14H117.863V9.053H113.052V14H110.264V1.93H113.052V6.605H117.863V1.93H120.651Z" fill="white"/>
<path d="M25.708 20.48H26.416L29.956 29H29.068L27.964 26.336H24.136L23.044 29H22.144L25.708 20.48ZM27.772 25.676L26.056 21.464L24.316 25.676H27.772ZM37.0094 23.468C36.4574 23.484 35.9774 23.636 35.5694 23.924C35.1614 24.212 34.8734 24.608 34.7054 25.112V29H33.8894V22.748H34.6574V24.248C34.8894 23.768 35.2014 23.392 35.5934 23.12C35.9854 22.848 36.4054 22.712 36.8534 22.712C36.9174 22.712 36.9694 22.716 37.0094 22.724V23.468ZM40.228 25.856C40.228 25.416 40.304 25 40.456 24.608C40.608 24.216 40.82 23.876 41.092 23.588C41.372 23.292 41.704 23.06 42.088 22.892C42.472 22.724 42.896 22.64 43.36 22.64C43.952 22.64 44.468 22.776 44.908 23.048C45.348 23.312 45.68 23.672 45.904 24.128L45.112 24.38C44.936 24.06 44.688 23.812 44.368 23.636C44.056 23.452 43.708 23.36 43.324 23.36C43.004 23.36 42.704 23.424 42.424 23.552C42.152 23.68 41.912 23.856 41.704 24.08C41.504 24.296 41.344 24.556 41.224 24.86C41.112 25.164 41.056 25.496 41.056 25.856C41.056 26.208 41.116 26.54 41.236 26.852C41.356 27.164 41.52 27.436 41.728 27.668C41.936 27.892 42.176 28.072 42.448 28.208C42.728 28.336 43.024 28.4 43.336 28.4C43.536 28.4 43.732 28.372 43.924 28.316C44.124 28.26 44.308 28.184 44.476 28.088C44.644 27.984 44.788 27.868 44.908 27.74C45.028 27.612 45.112 27.476 45.16 27.332L45.964 27.572C45.876 27.796 45.748 28.004 45.58 28.196C45.412 28.38 45.212 28.544 44.98 28.688C44.756 28.824 44.504 28.928 44.224 29C43.952 29.08 43.668 29.12 43.372 29.12C42.916 29.12 42.496 29.036 42.112 28.868C41.728 28.692 41.396 28.456 41.116 28.16C40.836 27.856 40.616 27.508 40.456 27.116C40.304 26.724 40.228 26.304 40.228 25.856ZM55.3819 29H54.5659V25.508C54.5659 24.796 54.4419 24.264 54.1939 23.912C53.9539 23.56 53.5979 23.384 53.1259 23.384C52.8939 23.384 52.6619 23.432 52.4299 23.528C52.2059 23.616 51.9939 23.74 51.7939 23.9C51.5939 24.06 51.4179 24.248 51.2659 24.464C51.1219 24.68 51.0139 24.916 50.9419 25.172V29H50.1259V20.24H50.9419V24.164C51.1899 23.692 51.5339 23.32 51.9739 23.048C52.4139 22.776 52.8899 22.64 53.4019 22.64C53.7619 22.64 54.0659 22.708 54.3139 22.844C54.5619 22.972 54.7659 23.156 54.9259 23.396C55.0859 23.628 55.2019 23.912 55.2739 24.248C55.3459 24.576 55.3819 24.94 55.3819 25.34V29ZM60.002 29V22.748H60.818V29H60.002ZM60.002 21.44V20.24H60.818V21.44H60.002ZM68.4953 28.7C68.4473 28.724 68.3753 28.756 68.2793 28.796C68.1913 28.836 68.0873 28.876 67.9673 28.916C67.8473 28.956 67.7113 28.992 67.5593 29.024C67.4073 29.056 67.2473 29.072 67.0793 29.072C66.9033 29.072 66.7353 29.048 66.5753 29C66.4153 28.952 66.2753 28.88 66.1553 28.784C66.0353 28.68 65.9393 28.552 65.8673 28.4C65.7953 28.248 65.7593 28.072 65.7593 27.872V23.396H64.8953V22.748H65.7593V20.636H66.5753V22.748H68.0153V23.396H66.5753V27.644C66.5913 27.876 66.6713 28.048 66.8153 28.16C66.9673 28.264 67.1393 28.316 67.3313 28.316C67.5633 28.316 67.7673 28.28 67.9433 28.208C68.1193 28.128 68.2313 28.072 68.2793 28.04L68.4953 28.7ZM74.9425 29.12C74.4865 29.12 74.0665 29.036 73.6825 28.868C73.3065 28.692 72.9785 28.456 72.6985 28.16C72.4185 27.856 72.1985 27.508 72.0385 27.116C71.8865 26.724 71.8105 26.304 71.8105 25.856C71.8105 25.416 71.8865 25.004 72.0385 24.62C72.1985 24.228 72.4145 23.888 72.6865 23.6C72.9665 23.304 73.2985 23.072 73.6825 22.904C74.0665 22.728 74.4825 22.64 74.9305 22.64C75.3865 22.64 75.8025 22.728 76.1785 22.904C76.5625 23.072 76.8905 23.304 77.1625 23.6C77.4345 23.896 77.6465 24.236 77.7985 24.62C77.9505 25.004 78.0265 25.412 78.0265 25.844C78.0265 25.908 78.0265 25.972 78.0265 26.036C78.0265 26.1 78.0225 26.144 78.0145 26.168H72.6625C72.6865 26.504 72.7625 26.816 72.8905 27.104C73.0265 27.384 73.1985 27.628 73.4065 27.836C73.6145 28.044 73.8505 28.208 74.1145 28.328C74.3865 28.44 74.6745 28.496 74.9785 28.496C75.1785 28.496 75.3785 28.468 75.5785 28.412C75.7785 28.356 75.9625 28.28 76.1305 28.184C76.2985 28.088 76.4505 27.972 76.5865 27.836C76.7225 27.692 76.8265 27.536 76.8985 27.368L77.6065 27.56C77.5105 27.792 77.3745 28.004 77.1985 28.196C77.0225 28.38 76.8185 28.544 76.5865 28.688C76.3545 28.824 76.0985 28.928 75.8185 29C75.5385 29.08 75.2465 29.12 74.9425 29.12ZM77.2465 25.544C77.2225 25.208 77.1425 24.904 77.0065 24.632C76.8785 24.352 76.7105 24.112 76.5025 23.912C76.3025 23.712 76.0665 23.556 75.7945 23.444C75.5305 23.332 75.2465 23.276 74.9425 23.276C74.6385 23.276 74.3505 23.332 74.0785 23.444C73.8065 23.556 73.5665 23.712 73.3585 23.912C73.1585 24.112 72.9945 24.352 72.8665 24.632C72.7465 24.912 72.6745 25.216 72.6505 25.544H77.2465ZM81.7335 25.856C81.7335 25.416 81.8095 25 81.9615 24.608C82.1135 24.216 82.3255 23.876 82.5975 23.588C82.8775 23.292 83.2095 23.06 83.5935 22.892C83.9775 22.724 84.4015 22.64 84.8655 22.64C85.4575 22.64 85.9735 22.776 86.4135 23.048C86.8535 23.312 87.1855 23.672 87.4095 24.128L86.6175 24.38C86.4415 24.06 86.1935 23.812 85.8735 23.636C85.5615 23.452 85.2135 23.36 84.8295 23.36C84.5095 23.36 84.2095 23.424 83.9295 23.552C83.6575 23.68 83.4175 23.856 83.2095 24.08C83.0095 24.296 82.8495 24.556 82.7295 24.86C82.6175 25.164 82.5615 25.496 82.5615 25.856C82.5615 26.208 82.6215 26.54 82.7415 26.852C82.8615 27.164 83.0255 27.436 83.2335 27.668C83.4415 27.892 83.6815 28.072 83.9535 28.208C84.2335 28.336 84.5295 28.4 84.8415 28.4C85.0415 28.4 85.2375 28.372 85.4295 28.316C85.6295 28.26 85.8135 28.184 85.9815 28.088C86.1495 27.984 86.2935 27.868 86.4135 27.74C86.5335 27.612 86.6175 27.476 86.6655 27.332L87.4695 27.572C87.3815 27.796 87.2535 28.004 87.0855 28.196C86.9175 28.38 86.7175 28.544 86.4855 28.688C86.2615 28.824 86.0095 28.928 85.7295 29C85.4575 29.08 85.1735 29.12 84.8775 29.12C84.4215 29.12 84.0015 29.036 83.6175 28.868C83.2335 28.692 82.9015 28.456 82.6215 28.16C82.3415 27.856 82.1215 27.508 81.9615 27.116C81.8095 26.724 81.7335 26.304 81.7335 25.856ZM94.6314 28.7C94.5834 28.724 94.5114 28.756 94.4154 28.796C94.3274 28.836 94.2234 28.876 94.1034 28.916C93.9834 28.956 93.8474 28.992 93.6954 29.024C93.5434 29.056 93.3834 29.072 93.2154 29.072C93.0394 29.072 92.8714 29.048 92.7114 29C92.5514 28.952 92.4114 28.88 92.2914 28.784C92.1714 28.68 92.0754 28.552 92.0034 28.4C91.9314 28.248 91.8954 28.072 91.8954 27.872V23.396H91.0314V22.748H91.8954V20.636H92.7114V22.748H94.1514V23.396H92.7114V27.644C92.7274 27.876 92.8074 28.048 92.9514 28.16C93.1034 28.264 93.2754 28.316 93.4674 28.316C93.6994 28.316 93.9034 28.28 94.0794 28.208C94.2554 28.128 94.3674 28.072 94.4154 28.04L94.6314 28.7ZM100.487 29.12C99.8069 29.12 99.2989 28.896 98.9629 28.448C98.6349 27.992 98.4709 27.316 98.4709 26.42V22.748H99.2869V26.276C99.2869 27.692 99.7709 28.4 100.739 28.4C100.979 28.4 101.215 28.36 101.447 28.28C101.679 28.2 101.891 28.084 102.083 27.932C102.283 27.78 102.459 27.6 102.611 27.392C102.771 27.184 102.899 26.948 102.995 26.684V22.748H103.811V27.944C103.811 28.168 103.907 28.28 104.099 28.28V29C104.003 29.016 103.923 29.024 103.859 29.024C103.803 29.024 103.763 29.024 103.739 29.024C103.547 29.016 103.391 28.948 103.271 28.82C103.151 28.692 103.091 28.52 103.091 28.304V27.584C102.819 28.072 102.447 28.452 101.975 28.724C101.511 28.988 101.015 29.12 100.487 29.12ZM111.656 23.468C111.104 23.484 110.624 23.636 110.216 23.924C109.808 24.212 109.52 24.608 109.352 25.112V29H108.536V22.748H109.304V24.248C109.536 23.768 109.848 23.392 110.24 23.12C110.632 22.848 111.052 22.712 111.5 22.712C111.564 22.712 111.616 22.716 111.656 22.724V23.468ZM118.007 29.12C117.551 29.12 117.131 29.036 116.747 28.868C116.371 28.692 116.043 28.456 115.763 28.16C115.483 27.856 115.263 27.508 115.103 27.116C114.951 26.724 114.875 26.304 114.875 25.856C114.875 25.416 114.951 25.004 115.103 24.62C115.263 24.228 115.479 23.888 115.751 23.6C116.031 23.304 116.363 23.072 116.747 22.904C117.131 22.728 117.547 22.64 117.995 22.64C118.451 22.64 118.867 22.728 119.243 22.904C119.627 23.072 119.955 23.304 120.227 23.6C120.499 23.896 120.711 24.236 120.863 24.62C121.015 25.004 121.091 25.412 121.091 25.844C121.091 25.908 121.091 25.972 121.091 26.036C121.091 26.1 121.087 26.144 121.079 26.168H115.727C115.751 26.504 115.827 26.816 115.955 27.104C116.091 27.384 116.263 27.628 116.471 27.836C116.679 28.044 116.915 28.208 117.179 28.328C117.451 28.44 117.739 28.496 118.043 28.496C118.243 28.496 118.443 28.468 118.643 28.412C118.843 28.356 119.027 28.28 119.195 28.184C119.363 28.088 119.515 27.972 119.651 27.836C119.787 27.692 119.891 27.536 119.963 27.368L120.671 27.56C120.575 27.792 120.439 28.004 120.263 28.196C120.087 28.38 119.883 28.544 119.651 28.688C119.419 28.824 119.163 28.928 118.883 29C118.603 29.08 118.311 29.12 118.007 29.12ZM120.311 25.544C120.287 25.208 120.207 24.904 120.071 24.632C119.943 24.352 119.775 24.112 119.567 23.912C119.367 23.712 119.131 23.556 118.859 23.444C118.595 23.332 118.311 23.276 118.007 23.276C117.703 23.276 117.415 23.332 117.143 23.444C116.871 23.556 116.631 23.712 116.423 23.912C116.223 24.112 116.059 24.352 115.931 24.632C115.811 24.912 115.739 25.216 115.715 25.544H120.311Z" fill="white" fill-opacity="0.45"/>
</g>
</svg>
