<svg width="122" height="30" viewBox="0 0 122 30" fill="none" xmlns="http://www.w3.org/2000/svg">
<path fill-rule="evenodd" clip-rule="evenodd" d="M10 0H0V10C0 12.7614 2.23858 15 5 15H15V5C15 2.23858 12.7614 0 10 0ZM10 2H2V10C2 11.6569 3.34315 13 5 13H13V5C13 3.34315 11.6569 2 10 2Z" fill="#F88500"/>
<path d="M27.423 1.964H29.582L30.942 5.959L32.302 1.964H34.478L32.421 7.455L33.951 11.314L37.368 1.93H39.918L35.005 14H33.033L30.942 8.934L28.851 14H26.879L22 1.93H24.516L27.95 11.314L29.446 7.455L27.423 1.964ZM45.8572 14.085C44.9732 14.085 44.1686 13.915 43.4432 13.575C42.7292 13.2237 42.1116 12.7647 41.5902 12.198C41.0802 11.62 40.6836 10.9627 40.4002 10.226C40.1169 9.48933 39.9752 8.73567 39.9752 7.965C39.9752 7.16033 40.1226 6.38967 40.4172 5.653C40.7232 4.91633 41.1369 4.26467 41.6582 3.698C42.1909 3.13133 42.8199 2.68367 43.5452 2.355C44.2706 2.015 45.0582 1.845 45.9082 1.845C46.7809 1.845 47.5742 2.02633 48.2882 2.389C49.0136 2.74033 49.6312 3.205 50.1412 3.783C50.6512 4.361 51.0479 5.01833 51.3312 5.755C51.6146 6.49167 51.7562 7.23967 51.7562 7.999C51.7562 8.80367 51.6089 9.57433 51.3142 10.311C51.0196 11.0363 50.6116 11.6823 50.0902 12.249C49.5689 12.8043 48.9456 13.252 48.2202 13.592C47.4949 13.9207 46.7072 14.085 45.8572 14.085ZM42.3552 7.965C42.3552 8.48633 42.4346 8.99067 42.5932 9.478C42.7519 9.96533 42.9786 10.396 43.2732 10.77C43.5792 11.144 43.9476 11.4443 44.3782 11.671C44.8202 11.8977 45.3189 12.011 45.8742 12.011C46.4409 12.011 46.9396 11.8977 47.3702 11.671C47.8122 11.433 48.1806 11.1213 48.4752 10.736C48.7812 10.3507 49.0079 9.92 49.1552 9.444C49.3139 8.95667 49.3932 8.46367 49.3932 7.965C49.3932 7.44367 49.3082 6.93933 49.1382 6.452C48.9796 5.96467 48.7472 5.534 48.4412 5.16C48.1466 4.786 47.7782 4.49133 47.3362 4.276C46.9056 4.04933 46.4182 3.936 45.8742 3.936C45.3076 3.936 44.8032 4.055 44.3612 4.293C43.9192 4.51967 43.5509 4.82567 43.2562 5.211C42.9616 5.585 42.7349 6.01567 42.5762 6.503C42.4289 6.979 42.3552 7.46633 42.3552 7.965ZM58.7069 14.085C57.8229 14.085 57.0182 13.915 56.2929 13.575C55.5789 13.2237 54.9612 12.7647 54.4399 12.198C53.9299 11.62 53.5332 10.9627 53.2499 10.226C52.9665 9.48933 52.8249 8.73567 52.8249 7.965C52.8249 7.16033 52.9722 6.38967 53.2669 5.653C53.5729 4.91633 53.9865 4.26467 54.5079 3.698C55.0405 3.13133 55.6695 2.68367 56.3949 2.355C57.1202 2.015 57.9079 1.845 58.7579 1.845C59.6305 1.845 60.4239 2.02633 61.1379 2.389C61.8632 2.74033 62.4809 3.205 62.9909 3.783C63.5009 4.361 63.8975 5.01833 64.1809 5.755C64.4642 6.49167 64.6059 7.23967 64.6059 7.999C64.6059 8.80367 64.4585 9.57433 64.1639 10.311C63.8692 11.0363 63.4612 11.6823 62.9399 12.249C62.4185 12.8043 61.7952 13.252 61.0699 13.592C60.3445 13.9207 59.5569 14.085 58.7069 14.085ZM55.2049 7.965C55.2049 8.48633 55.2842 8.99067 55.4429 9.478C55.6015 9.96533 55.8282 10.396 56.1229 10.77C56.4289 11.144 56.7972 11.4443 57.2279 11.671C57.6699 11.8977 58.1685 12.011 58.7239 12.011C59.2905 12.011 59.7892 11.8977 60.2199 11.671C60.6619 11.433 61.0302 11.1213 61.3249 10.736C61.6309 10.3507 61.8575 9.92 62.0049 9.444C62.1635 8.95667 62.2429 8.46367 62.2429 7.965C62.2429 7.44367 62.1579 6.93933 61.9879 6.452C61.8292 5.96467 61.5969 5.534 61.2909 5.16C60.9962 4.786 60.6279 4.49133 60.1859 4.276C59.7552 4.04933 59.2679 3.936 58.7239 3.936C58.1572 3.936 57.6529 4.055 57.2109 4.293C56.7689 4.51967 56.4005 4.82567 56.1059 5.211C55.8112 5.585 55.5845 6.01567 55.4259 6.503C55.2785 6.979 55.2049 7.46633 55.2049 7.965ZM66.4055 14V1.93H70.7915C71.7775 1.93 72.6388 2.08867 73.3755 2.406C74.1235 2.72333 74.7468 3.154 75.2455 3.698C75.7441 4.242 76.1181 4.88233 76.3675 5.619C76.6168 6.34433 76.7415 7.12067 76.7415 7.948C76.7415 8.866 76.5998 9.699 76.3165 10.447C76.0445 11.1837 75.6478 11.8183 75.1265 12.351C74.6051 12.8723 73.9761 13.2803 73.2395 13.575C72.5141 13.8583 71.6981 14 70.7915 14H66.4055ZM74.3785 7.948C74.3785 7.37 74.2991 6.83733 74.1405 6.35C73.9818 5.86267 73.7495 5.44333 73.4435 5.092C73.1375 4.74067 72.7578 4.46867 72.3045 4.276C71.8625 4.08333 71.3581 3.987 70.7915 3.987H68.7515V11.943H70.7915C71.3695 11.943 71.8795 11.841 72.3215 11.637C72.7748 11.433 73.1488 11.1553 73.4435 10.804C73.7495 10.4413 73.9818 10.0163 74.1405 9.529C74.2991 9.04167 74.3785 8.51467 74.3785 7.948ZM87.037 3.987H83.178V14H80.849V3.987H76.99V1.93H87.037V3.987ZM96.9163 11.943V14H88.5353V1.93H96.7633V3.987H90.8813V6.894H95.9643V8.798H90.8813V11.943H96.9163ZM97.7653 7.88C97.7653 7.14333 97.8956 6.418 98.1563 5.704C98.4283 4.97867 98.8193 4.33267 99.3293 3.766C99.8393 3.19933 100.463 2.74033 101.199 2.389C101.936 2.03767 102.775 1.862 103.715 1.862C104.826 1.862 105.784 2.10567 106.588 2.593C107.404 3.08033 108.011 3.715 108.407 4.497L106.605 5.738C106.447 5.398 106.254 5.11467 106.027 4.888C105.801 4.65 105.557 4.463 105.296 4.327C105.036 4.191 104.764 4.09467 104.48 4.038C104.197 3.97 103.919 3.936 103.647 3.936C103.058 3.936 102.542 4.055 102.1 4.293C101.67 4.531 101.307 4.84267 101.012 5.228C100.729 5.602 100.514 6.03267 100.366 6.52C100.219 6.996 100.145 7.472 100.145 7.948C100.145 8.48067 100.23 8.99633 100.4 9.495C100.57 9.98233 100.808 10.413 101.114 10.787C101.432 11.161 101.806 11.4613 102.236 11.688C102.678 11.9147 103.16 12.028 103.681 12.028C103.953 12.028 104.237 11.994 104.531 11.926C104.826 11.858 105.104 11.7503 105.364 11.603C105.636 11.4557 105.886 11.2687 106.112 11.042C106.339 10.804 106.52 10.5207 106.656 10.192L108.577 11.297C108.385 11.7503 108.107 12.1527 107.744 12.504C107.393 12.844 106.991 13.133 106.537 13.371C106.095 13.609 105.619 13.7903 105.109 13.915C104.599 14.0397 104.101 14.102 103.613 14.102C102.752 14.102 101.964 13.9207 101.25 13.558C100.536 13.1953 99.9186 12.725 99.3973 12.147C98.8873 11.5577 98.4849 10.8947 98.1903 10.158C97.9069 9.41 97.7653 8.65067 97.7653 7.88ZM120.3 1.93V14H117.971V8.849H112.497V14H110.151V1.93H112.497V6.809H117.971V1.93H120.3Z" fill="#171A1A"/>
<path opacity="0.75" d="M25.708 20.48H26.416L29.956 29H29.068L27.964 26.336H24.136L23.044 29H22.144L25.708 20.48ZM27.772 25.676L26.056 21.464L24.316 25.676H27.772ZM37.0094 23.468C36.4574 23.484 35.9774 23.636 35.5694 23.924C35.1614 24.212 34.8734 24.608 34.7054 25.112V29H33.8894V22.748H34.6574V24.248C34.8894 23.768 35.2014 23.392 35.5934 23.12C35.9854 22.848 36.4054 22.712 36.8534 22.712C36.9174 22.712 36.9694 22.716 37.0094 22.724V23.468ZM40.228 25.856C40.228 25.416 40.304 25 40.456 24.608C40.608 24.216 40.82 23.876 41.092 23.588C41.372 23.292 41.704 23.06 42.088 22.892C42.472 22.724 42.896 22.64 43.36 22.64C43.952 22.64 44.468 22.776 44.908 23.048C45.348 23.312 45.68 23.672 45.904 24.128L45.112 24.38C44.936 24.06 44.688 23.812 44.368 23.636C44.056 23.452 43.708 23.36 43.324 23.36C43.004 23.36 42.704 23.424 42.424 23.552C42.152 23.68 41.912 23.856 41.704 24.08C41.504 24.296 41.344 24.556 41.224 24.86C41.112 25.164 41.056 25.496 41.056 25.856C41.056 26.208 41.116 26.54 41.236 26.852C41.356 27.164 41.52 27.436 41.728 27.668C41.936 27.892 42.176 28.072 42.448 28.208C42.728 28.336 43.024 28.4 43.336 28.4C43.536 28.4 43.732 28.372 43.924 28.316C44.124 28.26 44.308 28.184 44.476 28.088C44.644 27.984 44.788 27.868 44.908 27.74C45.028 27.612 45.112 27.476 45.16 27.332L45.964 27.572C45.876 27.796 45.748 28.004 45.58 28.196C45.412 28.38 45.212 28.544 44.98 28.688C44.756 28.824 44.504 28.928 44.224 29C43.952 29.08 43.668 29.12 43.372 29.12C42.916 29.12 42.496 29.036 42.112 28.868C41.728 28.692 41.396 28.456 41.116 28.16C40.836 27.856 40.616 27.508 40.456 27.116C40.304 26.724 40.228 26.304 40.228 25.856ZM55.3819 29H54.5659V25.508C54.5659 24.796 54.4419 24.264 54.1939 23.912C53.9539 23.56 53.5979 23.384 53.1259 23.384C52.8939 23.384 52.6619 23.432 52.4299 23.528C52.2059 23.616 51.9939 23.74 51.7939 23.9C51.5939 24.06 51.4179 24.248 51.2659 24.464C51.1219 24.68 51.0139 24.916 50.9419 25.172V29H50.1259V20.24H50.9419V24.164C51.1899 23.692 51.5339 23.32 51.9739 23.048C52.4139 22.776 52.8899 22.64 53.4019 22.64C53.7619 22.64 54.0659 22.708 54.3139 22.844C54.5619 22.972 54.7659 23.156 54.9259 23.396C55.0859 23.628 55.2019 23.912 55.2739 24.248C55.3459 24.576 55.3819 24.94 55.3819 25.34V29ZM60.002 29V22.748H60.818V29H60.002ZM60.002 21.44V20.24H60.818V21.44H60.002ZM68.4953 28.7C68.4473 28.724 68.3753 28.756 68.2793 28.796C68.1913 28.836 68.0873 28.876 67.9673 28.916C67.8473 28.956 67.7113 28.992 67.5593 29.024C67.4073 29.056 67.2473 29.072 67.0793 29.072C66.9033 29.072 66.7353 29.048 66.5753 29C66.4153 28.952 66.2753 28.88 66.1553 28.784C66.0353 28.68 65.9393 28.552 65.8673 28.4C65.7953 28.248 65.7593 28.072 65.7593 27.872V23.396H64.8953V22.748H65.7593V20.636H66.5753V22.748H68.0153V23.396H66.5753V27.644C66.5913 27.876 66.6713 28.048 66.8153 28.16C66.9673 28.264 67.1393 28.316 67.3313 28.316C67.5633 28.316 67.7673 28.28 67.9433 28.208C68.1193 28.128 68.2313 28.072 68.2793 28.04L68.4953 28.7ZM74.9425 29.12C74.4865 29.12 74.0665 29.036 73.6825 28.868C73.3065 28.692 72.9785 28.456 72.6985 28.16C72.4185 27.856 72.1985 27.508 72.0385 27.116C71.8865 26.724 71.8105 26.304 71.8105 25.856C71.8105 25.416 71.8865 25.004 72.0385 24.62C72.1985 24.228 72.4145 23.888 72.6865 23.6C72.9665 23.304 73.2985 23.072 73.6825 22.904C74.0665 22.728 74.4825 22.64 74.9305 22.64C75.3865 22.64 75.8025 22.728 76.1785 22.904C76.5625 23.072 76.8905 23.304 77.1625 23.6C77.4345 23.896 77.6465 24.236 77.7985 24.62C77.9505 25.004 78.0265 25.412 78.0265 25.844C78.0265 25.908 78.0265 25.972 78.0265 26.036C78.0265 26.1 78.0225 26.144 78.0145 26.168H72.6625C72.6865 26.504 72.7625 26.816 72.8905 27.104C73.0265 27.384 73.1985 27.628 73.4065 27.836C73.6145 28.044 73.8505 28.208 74.1145 28.328C74.3865 28.44 74.6745 28.496 74.9785 28.496C75.1785 28.496 75.3785 28.468 75.5785 28.412C75.7785 28.356 75.9625 28.28 76.1305 28.184C76.2985 28.088 76.4505 27.972 76.5865 27.836C76.7225 27.692 76.8265 27.536 76.8985 27.368L77.6065 27.56C77.5105 27.792 77.3745 28.004 77.1985 28.196C77.0225 28.38 76.8185 28.544 76.5865 28.688C76.3545 28.824 76.0985 28.928 75.8185 29C75.5385 29.08 75.2465 29.12 74.9425 29.12ZM77.2465 25.544C77.2225 25.208 77.1425 24.904 77.0065 24.632C76.8785 24.352 76.7105 24.112 76.5025 23.912C76.3025 23.712 76.0665 23.556 75.7945 23.444C75.5305 23.332 75.2465 23.276 74.9425 23.276C74.6385 23.276 74.3505 23.332 74.0785 23.444C73.8065 23.556 73.5665 23.712 73.3585 23.912C73.1585 24.112 72.9945 24.352 72.8665 24.632C72.7465 24.912 72.6745 25.216 72.6505 25.544H77.2465ZM81.7335 25.856C81.7335 25.416 81.8095 25 81.9615 24.608C82.1135 24.216 82.3255 23.876 82.5975 23.588C82.8775 23.292 83.2095 23.06 83.5935 22.892C83.9775 22.724 84.4015 22.64 84.8655 22.64C85.4575 22.64 85.9735 22.776 86.4135 23.048C86.8535 23.312 87.1855 23.672 87.4095 24.128L86.6175 24.38C86.4415 24.06 86.1935 23.812 85.8735 23.636C85.5615 23.452 85.2135 23.36 84.8295 23.36C84.5095 23.36 84.2095 23.424 83.9295 23.552C83.6575 23.68 83.4175 23.856 83.2095 24.08C83.0095 24.296 82.8495 24.556 82.7295 24.86C82.6175 25.164 82.5615 25.496 82.5615 25.856C82.5615 26.208 82.6215 26.54 82.7415 26.852C82.8615 27.164 83.0255 27.436 83.2335 27.668C83.4415 27.892 83.6815 28.072 83.9535 28.208C84.2335 28.336 84.5295 28.4 84.8415 28.4C85.0415 28.4 85.2375 28.372 85.4295 28.316C85.6295 28.26 85.8135 28.184 85.9815 28.088C86.1495 27.984 86.2935 27.868 86.4135 27.74C86.5335 27.612 86.6175 27.476 86.6655 27.332L87.4695 27.572C87.3815 27.796 87.2535 28.004 87.0855 28.196C86.9175 28.38 86.7175 28.544 86.4855 28.688C86.2615 28.824 86.0095 28.928 85.7295 29C85.4575 29.08 85.1735 29.12 84.8775 29.12C84.4215 29.12 84.0015 29.036 83.6175 28.868C83.2335 28.692 82.9015 28.456 82.6215 28.16C82.3415 27.856 82.1215 27.508 81.9615 27.116C81.8095 26.724 81.7335 26.304 81.7335 25.856ZM94.6314 28.7C94.5834 28.724 94.5114 28.756 94.4154 28.796C94.3274 28.836 94.2234 28.876 94.1034 28.916C93.9834 28.956 93.8474 28.992 93.6954 29.024C93.5434 29.056 93.3834 29.072 93.2154 29.072C93.0394 29.072 92.8714 29.048 92.7114 29C92.5514 28.952 92.4114 28.88 92.2914 28.784C92.1714 28.68 92.0754 28.552 92.0034 28.4C91.9314 28.248 91.8954 28.072 91.8954 27.872V23.396H91.0314V22.748H91.8954V20.636H92.7114V22.748H94.1514V23.396H92.7114V27.644C92.7274 27.876 92.8074 28.048 92.9514 28.16C93.1034 28.264 93.2754 28.316 93.4674 28.316C93.6994 28.316 93.9034 28.28 94.0794 28.208C94.2554 28.128 94.3674 28.072 94.4154 28.04L94.6314 28.7ZM100.487 29.12C99.8069 29.12 99.2989 28.896 98.9629 28.448C98.6349 27.992 98.4709 27.316 98.4709 26.42V22.748H99.2869V26.276C99.2869 27.692 99.7709 28.4 100.739 28.4C100.979 28.4 101.215 28.36 101.447 28.28C101.679 28.2 101.891 28.084 102.083 27.932C102.283 27.78 102.459 27.6 102.611 27.392C102.771 27.184 102.899 26.948 102.995 26.684V22.748H103.811V27.944C103.811 28.168 103.907 28.28 104.099 28.28V29C104.003 29.016 103.923 29.024 103.859 29.024C103.803 29.024 103.763 29.024 103.739 29.024C103.547 29.016 103.391 28.948 103.271 28.82C103.151 28.692 103.091 28.52 103.091 28.304V27.584C102.819 28.072 102.447 28.452 101.975 28.724C101.511 28.988 101.015 29.12 100.487 29.12ZM111.656 23.468C111.104 23.484 110.624 23.636 110.216 23.924C109.808 24.212 109.52 24.608 109.352 25.112V29H108.536V22.748H109.304V24.248C109.536 23.768 109.848 23.392 110.24 23.12C110.632 22.848 111.052 22.712 111.5 22.712C111.564 22.712 111.616 22.716 111.656 22.724V23.468ZM118.007 29.12C117.551 29.12 117.131 29.036 116.747 28.868C116.371 28.692 116.043 28.456 115.763 28.16C115.483 27.856 115.263 27.508 115.103 27.116C114.951 26.724 114.875 26.304 114.875 25.856C114.875 25.416 114.951 25.004 115.103 24.62C115.263 24.228 115.479 23.888 115.751 23.6C116.031 23.304 116.363 23.072 116.747 22.904C117.131 22.728 117.547 22.64 117.995 22.64C118.451 22.64 118.867 22.728 119.243 22.904C119.627 23.072 119.955 23.304 120.227 23.6C120.499 23.896 120.711 24.236 120.863 24.62C121.015 25.004 121.091 25.412 121.091 25.844C121.091 25.908 121.091 25.972 121.091 26.036C121.091 26.1 121.087 26.144 121.079 26.168H115.727C115.751 26.504 115.827 26.816 115.955 27.104C116.091 27.384 116.263 27.628 116.471 27.836C116.679 28.044 116.915 28.208 117.179 28.328C117.451 28.44 117.739 28.496 118.043 28.496C118.243 28.496 118.443 28.468 118.643 28.412C118.843 28.356 119.027 28.28 119.195 28.184C119.363 28.088 119.515 27.972 119.651 27.836C119.787 27.692 119.891 27.536 119.963 27.368L120.671 27.56C120.575 27.792 120.439 28.004 120.263 28.196C120.087 28.38 119.883 28.544 119.651 28.688C119.419 28.824 119.163 28.928 118.883 29C118.603 29.08 118.311 29.12 118.007 29.12ZM120.311 25.544C120.287 25.208 120.207 24.904 120.071 24.632C119.943 24.352 119.775 24.112 119.567 23.912C119.367 23.712 119.131 23.556 118.859 23.444C118.595 23.332 118.311 23.276 118.007 23.276C117.703 23.276 117.415 23.332 117.143 23.444C116.871 23.556 116.631 23.712 116.423 23.912C116.223 24.112 116.059 24.352 115.931 24.632C115.811 24.912 115.739 25.216 115.715 25.544H120.311Z" fill="#6F7A8B"/>
</svg>
