<svg width="55" height="37" viewBox="0 0 55 37" fill="none" xmlns="http://www.w3.org/2000/svg">
<path d="M47.3102 29.116C45.7272 29.4468 43.7935 29.4562 42.0486 29.1416L41.4713 29.0375L42.3933 27.5455C44.0642 24.8416 45.1279 22.8034 46.2603 20.1361C47.3796 17.4992 48.1363 15.1484 48.6869 12.5973C48.9904 11.1919 49.367 8.90179 49.2896 8.93322C49.2713 8.94066 49.1322 9.44813 48.9806 10.0609C47.3791 16.5322 44.0476 23.2258 40.3366 27.4291C39.9227 27.8979 39.5571 28.262 39.5243 28.2383C39.1716 27.9835 37.8908 26.3372 37.2546 25.3207C36.6039 24.2811 35.8579 22.4815 35.6819 21.5272C35.3438 19.694 35.5581 18.2037 36.3986 16.5409C37.4132 14.5338 39.0319 12.735 41.9393 10.3842C45.3517 7.62498 46.3839 6.6332 47.4798 5.06112C48.2567 3.94654 48.9126 2.42336 49.1641 1.14994C49.2408 0.761424 49.3223 0.434709 49.3452 0.423874C49.417 0.389988 50.2177 1.63291 50.6885 2.5091C51.3864 3.8078 51.9709 5.1527 52.4491 6.56011C55.234 14.7569 55.0013 22.5587 51.859 26.3536C51.2985 27.0305 50.6318 27.6262 49.9887 28.025C49.3215 28.4387 48.0267 28.9661 47.3108 29.1157L47.3102 29.116ZM30.1602 35.9576C27.1156 36.8925 24.2685 36.897 21.5194 35.971C18.5533 34.9724 15.4638 32.5493 13.5029 29.6836C12.6317 28.4105 12.1028 27.3942 10.837 24.5603C10.1809 23.0914 9.50452 21.6703 9.2751 21.2785C7.46843 18.1928 5.15489 16.6966 0.918888 15.8748L0.285882 15.7519L0.635063 15.4674C1.16977 15.0316 2.35727 14.253 3.11627 13.8404C4.26811 13.2144 7.2132 12.1209 8.76232 11.7439C14.42 10.3672 20.816 10.3241 26.3282 11.6257C29.4473 12.3621 32.4538 13.6467 34.4645 15.1018L34.9664 15.4651L34.4566 16.6305C33.8998 17.9035 33.7226 18.5536 33.6601 19.5537C33.5233 21.7409 34.4675 24.1179 36.3645 26.3618C36.6489 26.6983 36.8758 26.9871 36.8687 27.0035C36.8615 27.0199 36.6764 26.8844 36.4574 26.7024C32.056 23.0441 27.4265 20.5356 22.4452 19.1096C21.1747 18.746 18.4478 18.1533 18.3075 18.2102C18.2887 18.2179 18.9489 18.5077 19.7746 18.8544C23.769 20.5314 27.1254 22.4 30.123 24.6148C31.2061 25.4152 33.1099 27.0831 33.9551 27.972C35.15 29.2289 36.3563 30.8509 36.7362 31.7119L36.9257 32.1413L36.3833 32.5832C34.7271 33.9323 32.0792 35.368 30.1606 35.9571L30.1602 35.9576ZM37.0144 27.1967C36.9735 27.1672 36.949 27.1225 36.9599 27.0975C36.9708 27.0725 37.017 27.0915 37.0624 27.1397C37.1568 27.2399 37.1256 27.277 37.0144 27.1967Z" fill="#F88500"/>
</svg>
