<svg width="41" height="40" viewBox="0 0 41 40" fill="none" xmlns="http://www.w3.org/2000/svg">
<g clip-path="url(#clip0_140_174)">
<path d="M20.921 0C17.0594 0 13.3136 1.11055 10.0883 3.21148C9.73597 3.44102 9.6358 3.91367 9.86439 4.26734C10.0931 4.62102 10.5639 4.72148 10.9163 4.49211C13.8944 2.55219 17.3539 1.52672 20.921 1.52672C31.0689 1.52672 39.3249 9.81383 39.3249 20C39.3249 30.1862 31.0689 38.4733 20.921 38.4733C10.7732 38.4733 2.51719 30.1862 2.51719 20C2.51719 14.8057 4.71492 9.82156 8.54679 6.3257C8.85757 6.04211 8.88045 5.55937 8.598 5.24734C8.31547 4.93531 7.83455 4.91227 7.52369 5.19594C3.37544 8.98055 0.996216 14.3764 0.996216 20C0.996216 31.0281 9.93436 40 20.921 40C31.9077 40 40.8458 31.0281 40.8458 20C40.8458 8.97187 31.9077 0 20.921 0Z" fill="#F88500"/>
<path d="M34.457 10.9281C34.2236 10.5778 33.7512 10.4835 33.4022 10.7181C33.053 10.9524 32.9594 11.4266 33.193 11.7769C34.8164 14.2129 35.6745 17.0563 35.6745 20C35.6745 28.1658 29.0561 34.8092 20.921 34.8092C12.7859 34.8092 6.16752 28.1658 6.16752 20C6.16752 11.8343 12.7859 5.1909 20.921 5.1909C24.8017 5.1909 28.4662 6.69106 31.2392 9.41504C31.5395 9.71004 32.0211 9.70473 32.3146 9.4034C32.6085 9.10215 32.6032 8.61879 32.303 8.32395C29.244 5.31903 25.2019 3.66418 20.921 3.66418C11.9472 3.66418 4.64655 10.9924 4.64655 20C4.64655 29.0077 11.9472 36.3359 20.921 36.3359C29.8948 36.3359 37.1954 29.0077 37.1954 20C37.1954 16.7531 36.2485 13.6159 34.457 10.9281Z" fill="#F88500"/>
<path d="M20.921 8.34619C18.4148 8.34619 16.0284 9.1351 14.0197 10.6278C13.682 10.8786 13.6111 11.3566 13.8609 11.6954C14.111 12.0346 14.5871 12.1057 14.9245 11.8548C16.6695 10.5582 18.743 9.87291 20.921 9.87291C26.4841 9.87291 31.0101 14.416 31.0101 20.0001C31.0101 24.6577 27.8707 28.6981 23.3756 29.8256C22.9681 29.9278 22.7204 30.3422 22.8222 30.7513C22.9086 31.0982 23.2187 31.3298 23.5595 31.3298C23.6205 31.3298 23.6826 31.3224 23.7445 31.3069C28.9179 30.0091 32.5311 25.3596 32.5311 20.0001C32.5311 13.574 27.3228 8.34619 20.921 8.34619Z" fill="#F88500"/>
<path d="M14.5389 27.8439C12.183 25.9101 10.832 23.0511 10.832 20C10.832 17.8885 11.4726 15.8654 12.6847 14.1496C12.9277 13.8057 12.8468 13.3292 12.5042 13.0853C12.1617 12.8414 11.6869 12.9226 11.444 13.2665C10.0485 15.2419 9.31097 17.5704 9.31097 20C9.31097 23.511 10.8655 26.8007 13.5761 29.0257C13.7174 29.1417 13.8878 29.1982 14.0571 29.1982C14.2774 29.1982 14.4959 29.1026 14.6462 28.9181C14.9121 28.5916 14.864 28.1107 14.5389 27.8439Z" fill="#F88500"/>
<path d="M27.5119 19.2366C27.0918 19.2366 26.7515 19.5783 26.7515 20C26.7515 23.2271 24.136 25.8524 20.921 25.8524C17.7061 25.8524 15.0906 23.2271 15.0906 20C15.0906 16.7729 17.7061 14.1476 20.921 14.1476C21.3412 14.1476 21.6815 13.8059 21.6815 13.3842C21.6815 12.9626 21.3412 12.6208 20.921 12.6208C16.8674 12.6208 13.5696 15.9311 13.5696 20C13.5696 24.0689 16.8674 27.3791 20.921 27.3791C24.9746 27.3791 28.2724 24.0689 28.2724 20C28.2724 19.5783 27.932 19.2366 27.5119 19.2366Z" fill="#F88500"/>
<path d="M20.921 16.8958C19.2158 16.8958 17.8284 18.2884 17.8284 20.0001C17.8284 21.7117 19.2158 23.1044 20.921 23.1044C22.6262 23.1044 24.0136 21.7117 24.0136 20.0001C24.0136 18.2884 22.6262 16.8958 20.921 16.8958ZM20.921 21.5776C20.0543 21.5776 19.3494 20.87 19.3494 20.0001C19.3494 19.1301 20.0543 18.4225 20.921 18.4225C21.7877 18.4225 22.4926 19.1301 22.4926 20.0001C22.4926 20.87 21.7877 21.5776 20.921 21.5776Z" fill="#F88500"/>
</g>
<defs>
<clipPath id="clip0_140_174">
<rect width="39.8496" height="40" fill="white" transform="translate(0.996216)"/>
</clipPath>
</defs>
</svg>
